<?xml version="1.0" encoding="UTF-8"?>
<svg width="1043px" height="120px" viewBox="0 0 1043 120" version="1.1" xmlns="http://www.w3.org/2000/svg" xmlns:xlink="http://www.w3.org/1999/xlink">
    <!-- Generator: Sketch 56.2 (81672) - https://sketch.com -->
    <title>Group 3</title>
    <desc>Created with Sketch.</desc>
    <g id="Page-1" stroke="none" stroke-width="1" fill="none" fill-rule="evenodd">
        <g id="Group-3">
            <g id="Group-2" transform="translate(0.000000, 0.000000)" fill="#000000">
                <path d="M603.594354,58.6452994 C585.026675,61.4712281 559.126905,70.5433334 533.227136,71.2367057 C554.418383,63.7086645 573.744754,54.3044397 592.648342,44.4865223 C530.406656,42.5287655 475.265399,13.8790919 411.257293,9.87617838 C334.281928,5.06335951 271.982326,19.8048023 228.302527,55.4989045 C241.489865,60.5331363 250.60575,49.9810601 261.140562,44.4865223 C305.162062,21.5120129 374.249349,10.4064042 437.840464,24.0349554 C442.821189,22.8230107 449.713122,25.9577523 440.967896,25.6139796 C370.693343,15.3299295 300.181337,28.9118675 256.449414,55.4989045 C275.057634,62.4267999 291.870476,48.2388896 309.615756,42.9133249 C335.341779,35.1813507 363.16434,31.2133971 398.747565,31.9067694 C357.025307,37.1216276 315.760581,42.8026184 284.596301,58.6452994 C356.046537,67.099779 433.433101,64.8856493 491.012597,41.3401274 C437.620385,68.8011629 357.922996,76.5156571 276.777722,72.8040764 C171.24427,67.9854309 50.658605,56.7865957 2.27373675e-13,120 C33.6025181,71.7028382 90.5333615,53.925707 176.699901,53.925707 C189.487623,53.925707 206.28309,57.6431143 217.356516,55.4989045 C225.534171,53.9140537 238.42614,41.9344465 247.07291,36.6205351 C287.56157,11.7174021 337.60048,-2.75018784 409.693577,0.436993668 C478.809821,3.49598871 534.379653,31.8193695 609.849217,27.187177 C613.584761,51.2978846 610.225667,80.90313 602.030638,99.5484331 C601.914807,99.822286 599.094327,110.252002 597.33949,104.268025 C601.4399,91.0881268 603.727559,76.0903111 603.594354,58.6452994" id="Fill-33"></path>
                <path d="M22.7368421,114.947368 C73.4927,67.2661374 184.829813,80.0728346 276.284264,84.5314625 C370.932693,89.1383161 473.847209,87.5078338 559.568728,79.7289511 C562.368532,79.2842741 562.785894,81.2467819 561.139633,81.3297882 C476.745556,92.2807002 378.793011,96.276864 280.979586,95.7373226 C188.30783,95.2274263 87.2946298,70.2128636 22.7368421,114.947368" id="Fill-35"></path>
            </g>
            <text id="DENT-TOUCH,-LLC." font-family="Exo-SemiBold, Exo" font-size="48" font-weight="500" fill="#1A1919">
                <tspan x="643" y="76">DENT TOUCH, LLC.</tspan>
            </text>
        </g>
    </g>
</svg>