<?xml version="1.0" encoding="UTF-8"?>
<svg width="484px" height="95px" viewBox="0 0 484 95" version="1.1" xmlns="http://www.w3.org/2000/svg" xmlns:xlink="http://www.w3.org/1999/xlink">
    <!-- Generator: Sketch 56.2 (81672) - https://sketch.com -->
    <title>Group 2</title>
    <desc>Created with Sketch.</desc>
    <g id="Page-1" stroke="none" stroke-width="1" fill="none" fill-rule="evenodd">
        <g id="Group-2" transform="translate(-0.000000, 0.000000)" fill="#000000">
            <path d="M477.84553,46.4275287 C463.146117,48.6647223 442.642133,55.8468056 422.138149,56.3957253 C438.914553,50.4360261 454.214597,42.9910148 469.179937,35.2184968 C419.905269,33.668606 376.251774,10.9876144 325.57869,7.81864122 C264.639859,4.00849294 215.319342,15.6788018 180.739501,43.9366327 C191.179477,47.9220663 198.396219,39.5683392 206.736278,35.2184968 C241.586632,17.0303435 296.280734,8.23840331 346.6237,19.0276731 C350.566774,18.0682168 356.022888,20.5498873 349.099584,20.2777338 C293.465563,12.1361942 237.643558,22.8885618 203.022453,43.9366327 C217.75396,49.4212166 231.064127,38.1891209 245.112474,33.9730489 C265.478909,27.8519027 287.505103,24.7106061 315.675156,25.2595257 C282.645035,29.3879552 249.977127,33.8854062 225.305405,46.4275287 C281.870175,53.1206584 343.134539,51.3678057 388.718306,32.7276009 C346.449472,54.4675873 283.355705,60.5748952 219.115696,57.6365605 C135.568381,53.8217995 40.1047289,44.9560549 2.27373675e-13,95 C26.6019935,56.7647469 71.6722445,42.6911847 139.887422,42.6911847 C150.011035,42.6911847 163.307447,45.6341322 172.073908,43.9366327 C178.547885,42.6819592 188.754028,33.1981034 195.599387,28.9912569 C227.65291,9.27627663 267.267047,-2.17723204 324.340748,0.34595332 C379.057775,2.76765773 423.050558,25.1903342 482.797297,21.5231818 C485.754602,40.6108253 483.09532,64.0483112 476.607588,78.8091762 C476.515889,79.0259764 474.283009,87.2828353 472.893763,82.5455202 C476.139921,72.1114337 477.950984,60.238163 477.84553,46.4275287" id="Fill-33"></path>
            <path d="M18,91 C58.1817208,53.2523588 146.323602,63.3909941 218.725042,66.9207412 C293.655049,70.5678336 375.12904,69.2770351 442.99191,63.1187529 C445.208421,62.766717 445.538833,64.320369 444.235542,64.3860824 C377.423565,73.0555543 299.8778,76.219184 222.442172,75.7920471 C149.077032,75.3883792 69.1082486,55.5851837 18,91" id="Fill-35"></path>
        </g>
    </g>
</svg>